<svg width="28" height="28" viewBox="0 0 28 28" fill="none" xmlns="http://www.w3.org/2000/svg">
<g clip-path="url(#clip0_242_4351)">
<path d="M5.20898 0.0765989C4.74961 0.191499 4.40508 0.38847 4.05508 0.738641C3.69961 1.09428 3.48086 1.48275 3.38242 1.95877C3.33867 2.16121 3.32227 3.69868 3.32227 6.93776V11.6322L3.86914 11.6104C5.02305 11.5611 6.35195 11.8019 7.50039 12.2615C8.64336 12.7156 9.68789 13.4159 10.6066 14.3461L11.1371 14.8823H15.6543C20.073 14.8823 20.177 14.8823 20.3848 14.9917C20.6309 15.1175 20.8223 15.4294 20.8223 15.703C20.8223 15.9765 20.6309 16.2884 20.3848 16.4143C20.177 16.5237 20.073 16.5237 16.1848 16.5237H12.1926L12.4004 17.0052C12.7504 17.8204 12.9965 18.7068 13.0895 19.4947L13.1277 19.8065H16.6496C20.0676 19.8065 20.177 19.812 20.3848 19.916C20.6309 20.0418 20.8223 20.3537 20.8223 20.6273C20.8223 20.9008 20.6309 21.2127 20.3848 21.3385C20.177 21.4425 20.0676 21.448 16.6496 21.448H13.1332L13.0621 21.9459C12.7504 24.1563 11.4379 26.416 9.69883 27.7292L9.32148 28.0137H15.8621C20.4668 28.0137 22.4902 27.9973 22.6926 27.9535C23.6223 27.7565 24.3934 26.9796 24.5902 26.0549C24.634 25.847 24.6504 23.062 24.6504 16.4416V7.11285H21.4184H18.1863L17.9676 6.99247C17.8363 6.91587 17.7051 6.78456 17.6449 6.66419C17.5465 6.47269 17.541 6.29213 17.541 3.22814V-9.53674e-07L11.5145 0.00547047C6.88242 0.0109419 5.4168 0.0273561 5.20898 0.0765989ZM20.3848 10.0674C20.6309 10.1933 20.8223 10.5051 20.8223 10.7787C20.8223 11.0523 20.6309 11.3641 20.3848 11.49C20.1715 11.5994 20.0785 11.5994 13.9809 11.5994H7.7957L7.57695 11.479C7.02461 11.1672 7.01914 10.4176 7.56602 10.0893L7.7793 9.95798H13.9754C20.0785 9.95798 20.1715 9.95798 20.3848 10.0674Z" fill="#479E70"/>
<path fill-rule="evenodd" clip-rule="evenodd" d="M24.6504 11.6322V7.11284H9.78633H6.5543H3.32227V16.4416C3.32227 23.062 3.33867 25.847 3.38242 26.0549C3.57929 26.9796 4.35039 27.7565 5.28008 27.9535C5.48242 27.9973 7.50586 28.0137 12.1105 28.0137H18.6512L18.2738 27.7292C16.5348 26.416 15.2223 24.1563 14.9105 21.9459L14.8395 21.448H11.323C7.90508 21.448 7.7957 21.4425 7.58789 21.3385C7.3418 21.2127 7.15039 20.9008 7.15039 20.6273C7.15039 20.3537 7.3418 20.0418 7.58789 19.916C7.7957 19.812 7.90508 19.8065 11.323 19.8065H14.8449L14.8832 19.4947C14.9762 18.7068 15.2223 17.8204 15.5723 17.0052L15.7801 16.5237H11.7879C7.89961 16.5237 7.7957 16.5237 7.58789 16.4143C7.3418 16.2884 7.15039 15.9765 7.15039 15.703C7.15039 15.4294 7.3418 15.1175 7.58789 14.9917C7.7957 14.8823 7.89961 14.8823 12.3184 14.8823H16.8355L17.366 14.3461C18.2848 13.4159 19.3293 12.7156 20.4723 12.2615C21.6207 11.8019 22.9496 11.5611 24.1035 11.6104L24.6504 11.6322ZM7.15039 10.7787C7.15039 10.5051 7.3418 10.1933 7.58789 10.0674C7.80117 9.95798 7.89414 9.95798 13.9973 9.95798H20.1934L20.4066 10.0893C20.9535 10.4176 20.948 11.1672 20.3957 11.479L20.177 11.5994H13.9918C7.89414 11.5994 7.80117 11.5994 7.58789 11.49C7.3418 11.3641 7.15039 11.0523 7.15039 10.7787Z" fill="#479E70"/>
<path d="M19.1953 2.98218V5.47168H21.6945H24.1992L21.7109 2.98218C20.3437 1.61433 19.2172 0.492687 19.2117 0.492687C19.2008 0.492687 19.1953 1.61433 19.1953 2.98218Z" fill="#479E70"/>
</g>
<defs>
<clipPath id="clip0_242_4351">
<rect width="28" height="28" fill="white"/>
</clipPath>
</defs>
</svg>
