<svg width="28" height="28" viewBox="0 0 28 28" fill="none" xmlns="http://www.w3.org/2000/svg">
<g clip-path="url(#clip0_242_3991)">
<path d="M11.7252 0.0313204C9.30787 0.277904 6.78636 1.30808 4.88426 2.82046C2.66424 4.59038 1.0417 7.12745 0.356509 9.89467C0.0714686 11.0618 -0.005273 11.7029 0.000208543 13.0455C0.000208543 14.3661 0.0659871 14.9798 0.351027 16.1305C0.581252 17.0675 0.855329 17.8182 1.30482 18.7443C3.19595 22.6184 6.73703 25.2048 11.1223 25.9281C11.9774 26.0706 14.0439 26.0706 14.9319 25.9336C16.8614 25.6267 18.6484 24.9363 20.2161 23.8951L20.9287 23.4239L23.0665 25.5609C25.5278 28.0103 25.5168 27.9994 26.2787 27.9994C26.7063 28.0049 26.7721 27.9884 27.09 27.8186C27.4737 27.6103 27.6382 27.435 27.8574 27.024C27.978 26.7884 27.9999 26.6733 27.9999 26.2788C27.9999 25.5171 28.0109 25.5281 25.5552 23.0622L23.4119 20.9197L23.7134 20.4868C24.8261 18.9087 25.5607 17.0949 25.906 15.0729C26.0704 14.1085 26.0814 12.0482 25.9334 11.1276C25.2044 6.73292 22.6171 3.20951 18.7416 1.31356C17.4973 0.710795 16.2859 0.327221 14.9045 0.113515C14.2467 0.00940181 12.4104 -0.0344353 11.7252 0.0313204ZM13.9891 3.54377C17.3329 3.9109 20.1668 5.89453 21.5975 8.87545C22.1895 10.1084 22.4855 11.3084 22.5348 12.6619C22.5842 13.9058 22.4471 14.8757 22.0579 16.0373C20.9836 19.2813 18.2976 21.6485 14.8826 22.3718C14.2687 22.5033 14.0659 22.5198 13.0682 22.5198C11.802 22.5252 11.3032 22.4595 10.2233 22.1307C7.75659 21.3909 5.64072 19.5936 4.46219 17.2374C3.14662 14.6126 3.16306 11.3742 4.50604 8.71107C4.73078 8.26174 5.25153 7.45075 5.55301 7.07265C5.83257 6.72196 6.59451 5.96577 7.0111 5.62055C8.92416 4.05337 11.5389 3.27527 13.9891 3.54377Z" fill="#479E70"/>
<circle cx="13" cy="13" r="8" fill="#479E70"/>
</g>
<defs>
<clipPath id="clip0_242_3991">
<rect width="28" height="28" fill="white"/>
</clipPath>
</defs>
</svg>
