<svg width="28" height="28" viewBox="0 0 28 28" fill="none" xmlns="http://www.w3.org/2000/svg">
<g clip-path="url(#clip0_242_4362)">
<path d="M8.50391 0.076563C8.04453 0.191407 7.7 0.388282 7.35 0.738282C6.99453 1.09375 6.77578 1.48203 6.67734 1.95781C6.63359 2.16016 6.61719 3.69688 6.61719 6.93438V11.6266L7.16406 11.6047C8.31797 11.5555 9.64687 11.7961 10.7953 12.2555C11.9383 12.7094 12.9828 13.4094 13.9016 14.3391L14.432 14.875H18.9492C23.368 14.875 23.4719 14.875 23.6797 14.9844C23.9258 15.1102 24.1172 15.4219 24.1172 15.6953C24.1172 15.9688 23.9258 16.2805 23.6797 16.4063C23.4719 16.5156 23.368 16.5156 19.4797 16.5156H15.4875L15.6953 16.9969C16.0453 17.8117 16.2914 18.6977 16.3844 19.4852L16.4227 19.7969H19.9445C23.3625 19.7969 23.4719 19.8023 23.6797 19.9063C23.9258 20.032 24.1172 20.3438 24.1172 20.6172C24.1172 20.8906 23.9258 21.2023 23.6797 21.3281C23.4719 21.432 23.3625 21.4375 19.9445 21.4375H16.4281L16.357 21.9352C16.0453 24.1445 14.7328 26.4031 12.9937 27.7156L12.6164 28H19.157C23.7617 28 25.7852 27.9836 25.9875 27.9398C26.9172 27.743 27.6883 26.9664 27.8852 26.0422C27.9289 25.8344 27.9453 23.0508 27.9453 16.4336V7.10938H24.7133H21.4812L21.2625 6.98906C21.1312 6.9125 21 6.78125 20.9398 6.66094C20.8414 6.46953 20.8359 6.28906 20.8359 3.22656V4.76837e-07L14.8094 0.00546923C10.1773 0.010938 8.71172 0.0273442 8.50391 0.076563ZM23.6797 10.0625C23.9258 10.1883 24.1172 10.5 24.1172 10.7734C24.1172 11.0469 23.9258 11.3586 23.6797 11.4844C23.4664 11.5938 23.3734 11.5938 17.2758 11.5938H11.0906L10.8719 11.4734C10.3195 11.1617 10.3141 10.4125 10.8609 10.0844L11.0742 9.95313H17.2703C23.3734 9.95313 23.4664 9.95313 23.6797 10.0625Z" fill="#479E70"/>
<path d="M22.4766 2.98047V5.46875H24.9758H27.4805L24.9922 2.98047C23.625 1.61328 22.4984 0.492188 22.493 0.492188C22.482 0.492188 22.4766 1.61328 22.4766 2.98047Z" fill="#479E70"/>
<path fill-rule="evenodd" clip-rule="evenodd" d="M2.21484 15.4438C3.43984 14.2024 4.91094 13.486 6.67187 13.2672C7.05469 13.218 8.40547 13.2837 8.84844 13.3712C9.78359 13.5516 10.7352 13.9508 11.6156 14.536C12.1242 14.8696 13.1906 15.9415 13.5352 16.461C14.093 17.3032 14.4812 18.2383 14.6945 19.2501C14.8258 19.8954 14.8258 21.3391 14.6945 21.9844C14.3719 23.5376 13.7156 24.7516 12.6109 25.8399C11.5172 26.9227 10.2922 27.579 8.81563 27.8743C8.14844 28.0055 6.71016 28.0055 6.07031 27.8743C4.51719 27.5516 3.31406 26.9008 2.21484 25.7907C1.13203 24.6969 0.503125 23.5212 0.180469 21.9844C0.0492188 21.3391 0.0492188 19.8954 0.180469 19.2501C0.503125 17.7133 1.12656 16.543 2.21484 15.4438ZM9.53838 18.0407C9.1 17.6921 8.51888 17.4547 7.96175 17.3978C7.80383 17.3827 7.38062 17.3928 7.22902 17.4168C6.91066 17.466 6.63147 17.5544 6.34469 17.6934C5.45152 18.1303 4.85523 18.9424 4.68721 19.9552C4.6531 20.1674 4.65563 20.6422 4.69353 20.8645C4.77312 21.3305 4.9424 21.7485 5.19886 22.1122L5.26834 22.212L4.77438 22.7058C4.21093 23.2715 4.21093 23.2715 4.21094 23.4447V23.4471C4.21094 23.538 4.21599 23.5645 4.24378 23.6188C4.29432 23.7135 4.33222 23.7539 4.42065 23.8019C4.49392 23.8411 4.50908 23.8449 4.60762 23.8436H4.60996C4.78321 23.8436 4.78322 23.8436 5.34793 23.2816L5.84063 22.7891L6.00486 22.8977C6.36617 23.1377 6.77801 23.2968 7.2227 23.3675C7.42736 23.3991 7.90364 23.3991 8.10071 23.3662C9.11137 23.1995 9.92748 22.6035 10.3633 21.7106C10.4669 21.4972 10.5301 21.3242 10.5831 21.1082C10.6488 20.843 10.664 20.7016 10.664 20.3972C10.6653 20.0878 10.6476 19.94 10.5819 19.671C10.424 19.0333 10.05 18.4486 9.53838 18.0407ZM5.6865 19.4361C6.01623 18.7491 6.66937 18.292 7.44 18.2074C8.0047 18.1455 8.60731 18.3248 9.04821 18.686C9.14422 18.7656 9.31982 18.9398 9.38425 19.0207C9.45374 19.1078 9.57375 19.2947 9.62555 19.3983C9.93506 20.012 9.93885 20.7584 9.63565 21.3633C9.36404 21.9063 8.8764 22.3206 8.3079 22.4911C8.05902 22.5668 7.94406 22.582 7.65223 22.5807C7.42231 22.5807 7.37557 22.5769 7.23407 22.5466C6.44702 22.3799 5.82799 21.8344 5.58038 21.0867C5.49069 20.819 5.4591 20.5955 5.47047 20.3088C5.48184 19.9969 5.55006 19.7203 5.6865 19.4361Z" fill="#479E70"/>
</g>
<defs>
<clipPath id="clip0_242_4362">
<rect width="28" height="28" fill="white"/>
</clipPath>
</defs>
</svg>
