<svg width="247" height="38" viewBox="0 0 247 38" fill="none" xmlns="http://www.w3.org/2000/svg">
<g clip-path="url(#clip0_266_6340)">
<mask id="mask0_266_6340" style="mask-type:luminance" maskUnits="userSpaceOnUse" x="0" y="0" width="286" height="38">
<path d="M286 0H0V38H286V0Z" fill="white"/>
</mask>
<g mask="url(#mask0_266_6340)">
<path d="M45.0116 16.8347V15.3696L50.9582 7.19477H45V5.15962H54.1235V6.6247L48.1711 14.7995H54.1351V16.8347H45.0116ZM56.0683 16.8347V5.15962H58.5878V9.97672H63.7023V5.15962H66.216V16.8347H63.7023V12.0119H58.5878V16.8347H56.0683ZM70.3471 16.8347H67.6474L71.7611 5.15962H75.0078L79.1158 16.8347H76.416L73.431 7.82755H73.3379L70.3471 16.8347ZM70.1785 12.2456H76.5556V14.1724H70.1785V12.2456ZM80.5501 16.8347V5.15962H83.0695V14.7995H88.1782V16.8347H80.5501ZM100.334 10.9971C100.334 12.2703 100.087 13.3534 99.5946 14.2466C99.1055 15.1397 98.4386 15.8219 97.5924 16.2931C96.751 16.7606 95.8047 16.9943 94.7536 16.9943C93.6943 16.9943 92.744 16.7586 91.9018 16.2874C91.0604 15.8162 90.3952 15.134 89.9063 14.2409C89.4176 13.3477 89.1732 12.2665 89.1732 10.9971C89.1732 9.72398 89.4176 8.64085 89.9063 7.74774C90.3952 6.85463 91.0604 6.17435 91.9018 5.70689C92.744 5.23563 93.6943 5 94.7536 5C95.8047 5 96.751 5.23563 97.5924 5.70689C98.4386 6.17435 99.1055 6.85463 99.5946 7.74774C100.087 8.64085 100.334 9.72398 100.334 10.9971ZM97.7791 10.9971C97.7791 10.1724 97.653 9.47695 97.4006 8.91068C97.1524 8.34441 96.8018 7.91496 96.3479 7.62233C95.894 7.32968 95.3623 7.18337 94.7536 7.18337C94.1441 7.18337 93.6124 7.32968 93.1585 7.62233C92.7055 7.91496 92.3524 8.34441 92.1 8.91068C91.8518 9.47695 91.7273 10.1724 91.7273 10.9971C91.7273 11.8218 91.8518 12.5173 92.1 13.0836C92.3524 13.6499 92.7055 14.0793 93.1585 14.3719C93.6124 14.6646 94.1441 14.8109 94.7536 14.8109C95.3623 14.8109 95.894 14.6646 96.3479 14.3719C96.8018 14.0793 97.1524 13.6499 97.4006 13.0836C97.653 12.5173 97.7791 11.8218 97.7791 10.9971ZM102.2 16.8347V5.15962H106.971C107.848 5.15962 108.579 5.28693 109.164 5.54157C109.75 5.7962 110.19 6.14964 110.485 6.6019C110.78 7.05035 110.927 7.56721 110.927 8.15249C110.927 8.60854 110.834 9.0095 110.648 9.35534C110.462 9.69737 110.206 9.97861 109.88 10.199C109.558 10.4157 109.19 10.5696 108.774 10.6608V10.7748C109.228 10.7938 109.653 10.9192 110.049 11.1511C110.448 11.3829 110.773 11.7078 111.021 12.1259C111.269 12.5401 111.393 13.0342 111.393 13.608C111.393 14.2275 111.235 14.7805 110.922 15.267C110.611 15.7496 110.152 16.1316 109.543 16.4128C108.933 16.694 108.183 16.8347 107.291 16.8347H102.2ZM104.719 14.8166H106.773C107.475 14.8166 107.987 14.6855 108.309 14.4232C108.631 14.1572 108.792 13.8038 108.792 13.3629C108.792 13.0399 108.712 12.7548 108.553 12.5078C108.394 12.2608 108.167 12.0669 107.872 11.9263C107.582 11.7858 107.234 11.7155 106.831 11.7155H104.719V14.8166ZM104.719 10.0451H106.587C106.932 10.0451 107.238 9.98621 107.506 9.8684C107.777 9.74679 107.991 9.57576 108.146 9.35534C108.305 9.13491 108.384 8.87077 108.384 8.56294C108.384 8.14108 108.231 7.80095 107.925 7.54252C107.623 7.28408 107.192 7.15487 106.634 7.15487H104.719V10.0451ZM115.086 16.8347H112.386L116.5 5.15962H119.747L123.855 16.8347H121.155L118.17 7.82755H118.077L115.086 16.8347ZM114.917 12.2456H121.295V14.1724H114.917V12.2456ZM130.811 10.0337V11.9606H125.377V10.0337H130.811ZM132.969 16.8347V5.15962H140.86V7.19477H135.49V9.97672H140.336V12.0119H135.49V16.8347H132.969ZM149.019 8.51733C148.972 8.05748 148.772 7.70023 148.42 7.4456C148.067 7.19097 147.587 7.06365 146.982 7.06365C146.571 7.06365 146.224 7.12066 145.941 7.23467C145.657 7.34489 145.44 7.4988 145.289 7.69643C145.142 7.89406 145.068 8.11828 145.068 8.36911C145.06 8.57814 145.105 8.76056 145.202 8.91638C145.303 9.0722 145.44 9.20712 145.615 9.32113C145.789 9.43134 145.992 9.52825 146.22 9.61187C146.449 9.69167 146.694 9.76009 146.953 9.81709L148.024 10.0679C148.544 10.1819 149.02 10.334 149.455 10.524C149.89 10.714 150.266 10.9477 150.584 11.2252C150.902 11.5026 151.149 11.8294 151.323 12.2057C151.501 12.5819 151.593 13.0133 151.596 13.4998C151.593 14.2142 151.406 14.8337 151.038 15.3582C150.673 15.8788 150.146 16.2835 149.455 16.5724C148.769 16.8574 147.941 17 146.971 17C146.009 17 145.171 16.8555 144.457 16.5667C143.747 16.2778 143.192 15.8504 142.793 15.2841C142.397 14.714 142.189 14.009 142.171 13.1691H144.609C144.636 13.5605 144.75 13.8874 144.952 14.1496C145.158 14.4081 145.43 14.6037 145.772 14.7368C146.117 14.866 146.507 14.9306 146.942 14.9306C147.368 14.9306 147.739 14.8698 148.053 14.7482C148.371 14.6266 148.617 14.4575 148.792 14.2409C148.966 14.0242 149.054 13.7752 149.054 13.4941C149.054 13.2318 148.974 13.0113 148.815 12.8328C148.66 12.6542 148.431 12.5021 148.128 12.3767C147.83 12.2513 147.463 12.1373 147.029 12.0347L145.731 11.7155C144.727 11.476 143.934 11.1016 143.351 10.5924C142.769 10.0831 142.48 9.39714 142.484 8.53443C142.48 7.82755 142.673 7.20998 143.06 6.68171C143.453 6.15344 143.989 5.74109 144.673 5.44466C145.355 5.14822 146.131 5 147 5C147.884 5 148.656 5.14822 149.315 5.44466C149.979 5.74109 150.495 6.15344 150.863 6.68171C151.232 7.20998 151.422 7.82185 151.434 8.51733H149.019ZM159.756 8.51733C159.709 8.05748 159.509 7.70023 159.156 7.4456C158.803 7.19097 158.324 7.06365 157.719 7.06365C157.308 7.06365 156.961 7.12066 156.677 7.23467C156.394 7.34489 156.177 7.4988 156.026 7.69643C155.878 7.89406 155.805 8.11828 155.805 8.36911C155.797 8.57814 155.841 8.76056 155.938 8.91638C156.04 9.0722 156.177 9.20712 156.352 9.32113C156.526 9.43134 156.728 9.52825 156.957 9.61187C157.186 9.69167 157.43 9.76009 157.69 9.81709L158.761 10.0679C159.281 10.1819 159.758 10.334 160.192 10.524C160.627 10.714 161.003 10.9477 161.321 11.2252C161.639 11.5026 161.885 11.8294 162.06 12.2057C162.238 12.5819 162.329 13.0133 162.333 13.4998C162.329 14.2142 162.143 14.8337 161.775 15.3582C161.41 15.8788 160.882 16.2835 160.192 16.5724C159.505 16.8574 158.677 17 157.708 17C156.745 17 155.908 16.8555 155.193 16.5667C154.484 16.2778 153.929 15.8504 153.53 15.2841C153.134 14.714 152.927 14.009 152.907 13.1691H155.345C155.372 13.5605 155.487 13.8874 155.688 14.1496C155.894 14.4081 156.168 14.6037 156.508 14.7368C156.854 14.866 157.244 14.9306 157.678 14.9306C158.105 14.9306 158.475 14.8698 158.79 14.7482C159.108 14.6266 159.354 14.4575 159.529 14.2409C159.703 14.0242 159.79 13.7752 159.79 13.4941C159.79 13.2318 159.711 13.0113 159.552 12.8328C159.397 12.6542 159.168 12.5021 158.865 12.3767C158.566 12.2513 158.2 12.1373 157.766 12.0347L156.468 11.7155C155.463 11.476 154.67 11.1016 154.088 10.5924C153.507 10.0831 153.217 9.39714 153.222 8.53443C153.217 7.82755 153.409 7.20998 153.797 6.68171C154.189 6.15344 154.726 5.74109 155.409 5.44466C156.091 5.14822 156.867 5 157.736 5C158.621 5 159.393 5.14822 160.052 5.44466C160.715 5.74109 161.231 6.15344 161.6 6.68171C161.969 7.20998 162.159 7.82185 162.17 8.51733H159.756ZM164.028 16.8347V5.15962H168.729C169.633 5.15962 170.403 5.32874 171.04 5.66698C171.675 6.00142 172.16 6.46698 172.494 7.06365C172.831 7.65653 173 8.34061 173 9.1159C173 9.8912 172.83 10.5753 172.488 11.1682C172.146 11.761 171.652 12.2228 171.004 12.5534C170.36 12.884 169.58 13.0494 168.665 13.0494H165.668V11.0712H168.258C168.743 11.0712 169.142 10.9895 169.457 10.8261C169.775 10.6589 170.011 10.429 170.166 10.1363C170.325 9.83989 170.405 9.49975 170.405 9.1159C170.405 8.72826 170.325 8.39002 170.166 8.10118C170.011 7.80854 169.775 7.58242 169.457 7.4228C169.139 7.25938 168.735 7.17767 168.247 7.17767H166.548V16.8347H164.028Z" fill="white"/>
<path d="M175.368 16.9827C174.992 16.9827 174.669 16.8478 174.399 16.5782C174.132 16.3047 174 15.9774 174 15.596C174 15.2186 174.132 14.895 174.399 14.6254C174.669 14.3558 174.992 14.221 175.368 14.221C175.734 14.221 176.053 14.3558 176.326 14.6254C176.6 14.895 176.737 15.2186 176.737 15.596C176.737 15.8502 176.672 16.0833 176.543 16.2951C176.418 16.5031 176.252 16.6706 176.047 16.7978C175.842 16.921 175.616 16.9827 175.368 16.9827ZM178.778 16.8324V5H183.385C184.268 5 185.02 5.15984 185.644 5.47953C186.271 5.79537 186.748 6.24409 187.075 6.8257C187.406 7.40346 187.571 8.08328 187.571 8.86518C187.571 9.65092 187.404 10.3269 187.069 10.8931C186.735 11.4555 186.25 11.8869 185.615 12.1873C184.984 12.4877 184.22 12.638 183.323 12.638H180.238V10.6273H182.924C183.395 10.6273 183.787 10.5619 184.098 10.4309C184.41 10.2999 184.642 10.1035 184.794 9.84159C184.95 9.57967 185.028 9.2542 185.028 8.86518C185.028 8.4723 184.95 8.14106 184.794 7.87144C184.642 7.60182 184.408 7.39768 184.093 7.25902C183.781 7.1165 183.388 7.04525 182.912 7.04525H181.247V16.8324H178.778ZM185.085 11.4478L187.988 16.8324H185.262L182.422 11.4478H185.085ZM196.531 5H199V12.6842C199 13.5469 198.797 14.3019 198.39 14.949C197.987 15.596 197.422 16.1006 196.696 16.4627C195.97 16.8209 195.124 17 194.158 17C193.189 17 192.341 16.8209 191.615 16.4627C190.889 16.1006 190.324 15.596 189.921 14.949C189.518 14.3019 189.317 13.5469 189.317 12.6842V5H191.786V12.4704C191.786 12.9211 191.883 13.3216 192.077 13.6721C192.274 14.0226 192.552 14.298 192.909 14.4983C193.267 14.6986 193.683 14.7987 194.158 14.7987C194.637 14.7987 195.054 14.6986 195.407 14.4983C195.765 14.298 196.04 14.0226 196.235 13.6721C196.432 13.3216 196.531 12.9211 196.531 12.4704V5Z" fill="white"/>
<path d="M52.0221 26.1089V34.0778H50.2373V27.4786H46.7847V34.0778H45V26.1089H52.0221ZM61.5888 30.0934C61.5888 30.9624 61.4122 31.7017 61.0592 32.3113C60.7089 32.9209 60.2308 33.3865 59.6247 33.7081C59.0215 34.0272 58.3432 34.1867 57.5898 34.1867C56.831 34.1867 56.1498 34.0259 55.5466 33.7042C54.9434 33.3826 54.4666 32.917 54.1164 32.3073C53.7661 31.6977 53.5909 30.9598 53.5909 30.0934C53.5909 29.2244 53.7661 28.4851 54.1164 27.8755C54.4666 27.2659 54.9434 26.8015 55.5466 26.4825C56.1498 26.1608 56.831 26 57.5898 26C58.3432 26 59.0215 26.1608 59.6247 26.4825C60.2308 26.8015 60.7089 27.2659 61.0592 27.8755C61.4122 28.4851 61.5888 29.2244 61.5888 30.0934ZM59.7581 30.0934C59.7581 29.5305 59.6678 29.0557 59.4871 28.6692C59.3092 28.2827 59.0576 27.9896 58.7324 27.7899C58.4071 27.5901 58.0263 27.4903 57.5898 27.4903C57.1534 27.4903 56.7726 27.5901 56.4473 27.7899C56.1221 27.9896 55.8691 28.2827 55.6884 28.6692C55.5104 29.0557 55.4215 29.5305 55.4215 30.0934C55.4215 30.6563 55.5104 31.1309 55.6884 31.5175C55.8691 31.904 56.1221 32.1971 56.4473 32.3969C56.7726 32.5966 57.1534 32.6965 57.5898 32.6965C58.0263 32.6965 58.4071 32.5966 58.7324 32.3969C59.0576 32.1971 59.3092 31.904 59.4871 31.5175C59.6678 31.1309 59.7581 30.6563 59.7581 30.0934ZM62.4633 36V32.7354H63.043C63.2403 32.6031 63.4211 32.4163 63.585 32.1751C63.7491 31.9312 63.8894 31.5953 64.0062 31.1673C64.1229 30.7367 64.2064 30.1737 64.2564 29.4786L64.4983 26.1089H70.1484V32.7354H71.0824V35.9922H69.3477V34.0778H64.198V36H62.4633ZM65.1279 32.7354H68.4137V27.498H66.1245L65.991 29.4786C65.9549 30.0052 65.8952 30.4721 65.8117 30.8794C65.7311 31.2866 65.6325 31.6433 65.5157 31.9494C65.4017 32.2529 65.2724 32.5149 65.1279 32.7354ZM73.6521 34.0778H71.7173L74.6654 26.1089H76.9921L79.9361 34.0778H78.0012L75.8621 27.93H75.7954L73.6521 34.0778ZM73.5312 30.9455H78.1014V32.2607H73.5312V30.9455ZM81.31 26.1089H83.0655V28.677C83.0655 28.9831 83.1226 29.2296 83.2365 29.4163C83.3505 29.6005 83.527 29.7341 83.7661 29.8171C84.0079 29.8976 84.3179 29.9377 84.6959 29.9377C84.8294 29.9377 84.9865 29.9339 85.1671 29.926C85.3479 29.9157 85.5341 29.9014 85.7259 29.8832C85.9205 29.8651 86.104 29.8431 86.2764 29.8171C86.4487 29.7912 86.5918 29.7613 86.7058 29.7276V31.0583C86.589 31.0946 86.4431 31.1271 86.268 31.1556C86.0956 31.1816 85.9135 31.2049 85.7217 31.2256C85.5299 31.2438 85.3437 31.2581 85.1629 31.2684C84.9823 31.2789 84.8266 31.284 84.6959 31.284C84.0093 31.284 83.4117 31.1932 82.9029 31.0117C82.3942 30.8275 82.0008 30.5434 81.7229 30.1595C81.4477 29.7756 81.31 29.2814 81.31 28.677V26.1089ZM86.3931 26.1089H88.1569V34.0778H86.3931V26.1089ZM91.4145 34.0778H89.4798L92.4277 26.1089H94.7544L97.6984 34.0778H95.7634L93.6246 27.93H93.5575L91.4145 34.0778ZM91.2938 30.9455H95.864V32.2607H91.2938V30.9455ZM107.949 26.1089V34.0778H106.198V26.1089H107.949ZM101.04 34.0778L103.717 29.8755L101.152 26.1089H103.375L105.293 29.3891H108.9L110.768 26.1089H112.982L110.48 29.8638L113.108 34.0778H110.951L109.146 30.9455H105.031L103.179 34.0778H101.04ZM115.656 34.0778H113.722L116.67 26.1089H118.996L121.94 34.0778H120.005L117.866 27.93H117.799L115.656 34.0778ZM115.535 30.9455H120.105V32.2607H115.535V30.9455ZM122.505 34.0778V32.7237L122.747 32.7042C123.058 32.6809 123.31 32.5706 123.501 32.3735C123.693 32.1737 123.837 31.856 123.931 31.4202C124.029 30.9818 124.091 30.393 124.119 29.6537L124.26 26.1089H130.057V34.0778H128.301V27.4591H125.937L125.804 30.2335C125.759 31.1258 125.645 31.8547 125.461 32.4202C125.281 32.9857 124.992 33.4034 124.594 33.6732C124.199 33.9429 123.659 34.0778 122.972 34.0778H122.505ZM139.393 30.0934C139.393 30.9624 139.217 31.7017 138.863 32.3113C138.513 32.9209 138.035 33.3865 137.429 33.7081C136.825 34.0272 136.148 34.1867 135.394 34.1867C134.635 34.1867 133.954 34.0259 133.35 33.7042C132.747 33.3826 132.271 32.917 131.92 32.3073C131.571 31.6977 131.395 30.9598 131.395 30.0934C131.395 29.2244 131.571 28.4851 131.92 27.8755C132.271 27.2659 132.747 26.8015 133.35 26.4825C133.954 26.1608 134.635 26 135.394 26C136.148 26 136.825 26.1608 137.429 26.4825C138.035 26.8015 138.513 27.2659 138.863 27.8755C139.217 28.4851 139.393 29.2244 139.393 30.0934ZM137.563 30.0934C137.563 29.5305 137.472 29.0557 137.292 28.6692C137.113 28.2827 136.861 27.9896 136.537 27.7899C136.211 27.5901 135.831 27.4903 135.394 27.4903C134.958 27.4903 134.577 27.5901 134.251 27.7899C133.926 27.9896 133.673 28.2827 133.492 28.6692C133.314 29.0557 133.226 29.5305 133.226 30.0934C133.226 30.6563 133.314 31.1309 133.492 31.5175C133.673 31.904 133.926 32.1971 134.251 32.3969C134.577 32.5966 134.958 32.6965 135.394 32.6965C135.831 32.6965 136.211 32.5966 136.537 32.3969C136.861 32.1971 137.113 31.904 137.292 31.5175C137.472 31.1309 137.563 30.6563 137.563 30.0934ZM140.731 34.0778V26.1089H146.397V27.498H142.536V29.0545H143.924C144.6 29.0545 145.183 29.1569 145.672 29.3618C146.164 29.5642 146.543 29.8508 146.81 30.2218C147.077 30.5927 147.211 31.0298 147.211 31.5331C147.211 32.0337 147.077 32.476 146.81 32.8599C146.543 33.2412 146.164 33.5396 145.672 33.7549C145.183 33.9702 144.6 34.0778 143.924 34.0778H140.731ZM142.536 32.7237H143.924C144.247 32.7237 144.519 32.6692 144.742 32.5603C144.964 32.4488 145.132 32.3022 145.246 32.1206C145.363 31.9364 145.422 31.7354 145.422 31.5175C145.422 31.201 145.292 30.9339 145.034 30.7159C144.778 30.4954 144.408 30.3852 143.924 30.3852H142.536V32.7237ZM149.567 29.0545H151.602C152.281 29.0545 152.865 29.1569 153.353 29.3618C153.846 29.5642 154.225 29.8508 154.492 30.2218C154.759 30.5927 154.891 31.0298 154.888 31.5331C154.891 32.0337 154.759 32.476 154.492 32.8599C154.225 33.2412 153.846 33.5396 153.353 33.7549C152.865 33.9702 152.281 34.0778 151.602 34.0778H148.413V26.1089H150.214V32.7237H151.602C151.928 32.7237 152.201 32.6692 152.423 32.5603C152.646 32.4488 152.814 32.3022 152.928 32.1206C153.045 31.9364 153.102 31.7354 153.099 31.5175C153.102 31.201 152.974 30.9339 152.715 30.7159C152.46 30.4954 152.089 30.3852 151.602 30.3852H149.567V29.0545ZM157.386 26.1089V34.0778H155.585V26.1089H157.386ZM161.589 34.0778V26.1089H163.395V29.3969H167.06V26.1089H168.861V34.0778H167.06V30.7859H163.395V34.0778H161.589ZM171.822 34.0778H169.887L172.835 26.1089H175.162L178.105 34.0778H176.171L174.032 27.93H173.965L171.822 34.0778ZM171.701 30.9455H176.271V32.2607H171.701V30.9455ZM189.111 26.1089V34.0778H187.326V27.4786H183.873V34.0778H182.089V26.1089H189.111ZM190.83 34.0778V26.1089H194.199C194.847 26.1089 195.398 26.2244 195.855 26.4553C196.311 26.6835 196.658 27.0013 196.897 27.4085C197.139 27.8132 197.26 28.2801 197.26 28.8093C197.26 29.3385 197.138 29.8054 196.893 30.2101C196.648 30.6148 196.294 30.93 195.83 31.1556C195.368 31.3813 194.81 31.4942 194.154 31.4942H192.006V30.1439H193.862C194.209 30.1439 194.495 30.0882 194.721 29.9766C194.949 29.8625 195.118 29.7056 195.229 29.5058C195.343 29.3035 195.4 29.0713 195.4 28.8093C195.4 28.5447 195.343 28.3138 195.229 28.1167C195.118 27.917 194.949 27.7626 194.721 27.6537C194.493 27.5421 194.203 27.4863 193.854 27.4863H192.636V34.0778H190.83ZM198.433 26.1089H200.234V31.1206H200.305L203.996 26.1089H205.576V34.0778H203.77V29.0622H203.708L199.996 34.0778H198.433V26.1089ZM214.602 28.8988H212.776C212.743 28.6783 212.675 28.4825 212.572 28.3113C212.469 28.1374 212.337 27.9896 212.176 27.8677C212.015 27.7458 211.828 27.6523 211.617 27.5875C211.408 27.5227 211.182 27.4903 210.937 27.4903C210.495 27.4903 210.11 27.5927 209.782 27.7977C209.454 28 209.2 28.2957 209.019 28.6848C208.838 29.0713 208.748 29.5408 208.748 30.0934C208.748 30.6614 208.838 31.1388 209.019 31.5252C209.202 31.9118 209.458 32.2036 209.786 32.4007C210.114 32.5979 210.494 32.6965 210.924 32.6965C211.167 32.6965 211.391 32.6667 211.596 32.6069C211.804 32.5473 211.99 32.4604 212.151 32.3462C212.312 32.2296 212.445 32.0882 212.551 31.9221C212.66 31.7561 212.734 31.5668 212.776 31.3541L214.602 31.3618C214.555 31.7276 214.437 32.0804 214.248 32.4202C214.062 32.7575 213.81 33.0596 213.493 33.3268C213.179 33.5915 212.804 33.8015 212.368 33.9572C211.934 34.1102 211.443 34.1867 210.896 34.1867C210.133 34.1867 209.452 34.0259 208.853 33.7042C208.255 33.3826 207.782 32.917 207.434 32.3073C207.09 31.6977 206.918 30.9598 206.918 30.0934C206.918 29.2244 207.092 28.4851 207.443 27.8755C207.793 27.2659 208.268 26.8015 208.869 26.4825C209.469 26.1608 210.145 26 210.896 26C211.391 26 211.849 26.0648 212.271 26.1946C212.697 26.3243 213.073 26.5136 213.402 26.7626C213.73 27.0091 213.997 27.3113 214.202 27.6692C214.411 28.0272 214.544 28.4371 214.602 28.8988ZM215.572 27.498V26.1089H222.585V27.498H219.971V34.0778H218.186V27.498H215.572ZM224.169 34.0778H222.235L225.182 26.1089H227.509L230.453 34.0778H228.518L226.379 27.93H226.313L224.169 34.0778ZM224.048 30.9455H228.618V32.2607H224.048V30.9455ZM231.481 34.0778V26.1089H234.9C235.529 26.1089 236.053 26.1958 236.472 26.3696C236.892 26.5434 237.208 26.7847 237.419 27.0934C237.631 27.3995 237.735 27.7523 237.735 28.1518C237.735 28.463 237.669 28.7367 237.536 28.9728C237.402 29.2062 237.219 29.3981 236.985 29.5486C236.754 29.6965 236.491 29.8015 236.193 29.8638V29.9416C236.518 29.9546 236.823 30.0402 237.106 30.1984C237.392 30.3567 237.625 30.5785 237.802 30.8638C237.98 31.1465 238.069 31.4838 238.069 31.8755C238.069 32.2983 237.957 32.6757 237.731 33.0077C237.509 33.3372 237.18 33.5979 236.743 33.7899C236.307 33.9818 235.769 34.0778 235.129 34.0778H231.481ZM233.287 32.7004H234.759C235.262 32.7004 235.628 32.6109 235.859 32.4319C236.09 32.2503 236.205 32.0091 236.205 31.7081C236.205 31.4877 236.148 31.2931 236.034 31.1245C235.92 30.9559 235.758 30.8236 235.546 30.7276C235.338 30.6316 235.089 30.5836 234.8 30.5836H233.287V32.7004ZM233.287 29.4435H234.625C234.873 29.4435 235.092 29.4034 235.284 29.3229C235.478 29.24 235.631 29.1232 235.742 28.9728C235.857 28.8223 235.914 28.642 235.914 28.4319C235.914 28.1439 235.804 27.9118 235.584 27.7354C235.368 27.559 235.059 27.4708 234.658 27.4708H233.287V29.4435ZM240.716 34.0778H238.781L241.729 26.1089H244.056L247 34.0778H245.065L242.926 27.93H242.859L240.716 34.0778ZM240.595 30.9455H245.166V32.2607H240.595V30.9455Z" fill="white"/>
<path d="M2 36.9996H24.5674C25.1197 36.9996 25.5674 36.5519 25.5674 35.9996V2C25.5674 1.44771 25.1197 1 24.5674 1H2C1.44772 1 1 1.44771 1 2V35.9996C1 36.5519 1.44772 36.9996 2 36.9996Z" fill="#479E70" stroke="white"/>
<path d="M24.0719 32.3226L23.2434 33.2044L23.4032 34.4123L22.2224 34.6303L21.6533 35.7034L20.5711 35.1748L19.4889 35.7034L18.9197 34.6303L17.739 34.412L17.8987 33.2044L17.0703 32.3226L17.8987 31.4404L17.739 30.2325L18.9197 30.0145L19.4892 28.9414L20.5711 29.4704L21.6533 28.9414L22.2221 30.0145L23.4032 30.2329L23.2434 31.4408L24.0719 32.3226Z" fill="white"/>
<path d="M19.1621 7.61217C19.1621 7.93547 18.9041 8.19734 18.5857 8.19734H7.98263C7.66418 8.19734 7.40625 7.93547 7.40625 7.61217C7.40625 7.28922 7.66418 7.02734 7.98263 7.02734H18.5857C18.9041 7.02734 19.1621 7.28922 19.1621 7.61217Z" fill="white"/>
<path d="M21.2001 14.3996C21.2001 14.7226 20.9422 14.9845 20.6237 14.9845H5.94357C5.62513 14.9845 5.36719 14.7226 5.36719 14.3996C5.36719 14.0763 5.62513 13.8145 5.94357 13.8145H20.6237C20.9422 13.8145 21.2001 14.0763 21.2001 14.3996Z" fill="white"/>
<path d="M21.2001 16.8097C21.2001 17.133 20.9422 17.3949 20.6237 17.3949H5.94357C5.62513 17.3949 5.36719 17.133 5.36719 16.8097C5.36719 16.4864 5.62513 16.2246 5.94357 16.2246H20.6237C20.9422 16.2246 21.2001 16.4864 21.2001 16.8097Z" fill="white"/>
<path d="M21.2001 19.2218C21.2001 19.5451 20.9422 19.8067 20.6237 19.8067H5.94357C5.62513 19.8067 5.36719 19.5451 5.36719 19.2218C5.36719 18.8985 5.62513 18.6367 5.94357 18.6367H20.6237C20.9422 18.6367 21.2001 18.8985 21.2001 19.2218Z" fill="white"/>
<path d="M21.2001 21.6317C21.2001 21.955 20.9422 22.2169 20.6237 22.2169H5.94357C5.62513 22.2169 5.36719 21.955 5.36719 21.6317C5.36719 21.3091 5.62513 21.0469 5.94357 21.0469H20.6237C20.9422 21.0469 21.2001 21.3091 21.2001 21.6317Z" fill="white"/>
<path d="M30.5986 7.61271H33.2492C33.2492 7.61271 32.4425 3.63477 31.9239 3.63477C31.4052 3.63477 30.5986 7.61271 30.5986 7.61271Z" fill="white"/>
<path d="M33.2492 21.6329H30.5986V8.34375H33.2492V21.6329Z" fill="white"/>
<path d="M33.2486 22.5742H30.5983C28.4809 29.1122 30.5983 34.29 30.5983 34.29H31.9236H33.2486C35.3663 27.752 33.2486 22.5742 33.2486 22.5742Z" fill="white"/>
<path d="M30.5979 35.1172H33.2484C33.2484 35.1172 33.3639 37.414 31.9231 37.414C30.4824 37.414 30.5979 35.1172 30.5979 35.1172Z" fill="white"/>
<path d="M32.8746 34.2909H35.4104C35.4104 34.2909 36.5915 29.2005 35.6119 24.959C34.6324 24.959 34.4858 24.959 34.4858 24.959L35.2375 25.5147C35.2375 25.5147 35.6697 30.7806 34.8917 33.7057C33.7103 33.7057 32.6152 33.7057 32.6152 33.7057L32.8746 34.2909Z" fill="white"/>
</g>
</g>
<defs>
<clipPath id="clip0_266_6340">
<rect width="247" height="38" fill="white"/>
</clipPath>
</defs>
</svg>
