<svg display="none" xmlns="http://www.w3.org/2000/svg">

	<symbol id="burger" viewBox="0 0 24 24">
		<path d="M3 12H17M3 6H21M3 18H21" stroke-width="2" stroke-linecap="round" stroke-linejoin="round" />
	</symbol>

	<symbol id="close" viewBox="0 0 24 24">
		<path d="M18 6L6 18M6 6L18 18" stroke-width="2" stroke-linecap="round" stroke-linejoin="round" />
	</symbol>

	<symbol id="user-icon" viewBox="0 0 20 20">
		<g>
			<path
				d="M9.49291 0.0248839C8.02156 0.207372 6.71752 1.19873 6.14178 2.58465C5.90066 3.15184 5.84653 3.45764 5.84653 4.21718C5.84653 4.85342 5.86129 4.98166 5.97939 5.36636C6.20575 6.10125 6.53053 6.64871 7.04722 7.16659C8.927 9.05065 12.0419 8.735 13.5182 6.50568C13.7593 6.14071 14.0004 5.56858 14.1038 5.10496C14.212 4.63641 14.217 3.76343 14.1136 3.32447C13.8036 1.97307 12.9277 0.892936 11.6925 0.345471C11.0824 0.0742051 10.1671 -0.058962 9.49291 0.0248839Z" />
			<path
				d="M6.69292 10.6043C6.45672 10.6438 6.01876 10.7572 5.71858 10.8559C3.90277 11.4576 2.70208 12.878 2.26904 14.9347C2.12141 15.6203 2.10665 16.878 2.23951 17.46C2.52 18.6831 3.31719 19.5265 4.46376 19.8224C5.08379 19.9803 5.64969 20 9.99976 20C14.3498 20 14.9157 19.9803 15.5358 19.8224C16.6823 19.5265 17.4795 18.6831 17.76 17.46C17.8929 16.878 17.8781 15.6203 17.7354 14.9347C17.2974 12.878 16.0967 11.4576 14.2859 10.8559C13.3558 10.5451 13.1245 10.5303 9.95055 10.5353C7.82964 10.5402 7.01278 10.555 6.69292 10.6043Z" />
		</g>
	</symbol>

	<symbol id="calendar" viewBox="0 0 20 20">
		<g>
			<path
				d="M0 8H20V19C20 19.2652 19.8946 19.5196 19.7071 19.7071C19.5196 19.8946 19.2652 20 19 20H1C0.734784 20 0.48043 19.8946 0.292893 19.7071C0.105357 19.5196 0 19.2652 0 19V8ZM15 2H19C19.2652 2 19.5196 2.10536 19.7071 2.29289C19.8946 2.48043 20 2.73478 20 3V6H0V3C0 2.73478 0.105357 2.48043 0.292893 2.29289C0.48043 2.10536 0.734784 2 1 2H5V0H7V2H13V0H15V2Z" />
			<rect x="3" y="11" width="2" height="2" fill="white" />
			<rect x="3" y="15" width="2" height="2" fill="white" />
			<rect x="7" y="11" width="2" height="2" fill="white" />
			<rect x="7" y="15" width="2" height="2" fill="white" />
			<rect x="11" y="11" width="2" height="2" fill="white" />
			<rect x="11" y="15" width="2" height="2" fill="white" />
			<rect x="15" y="11" width="2" height="2" fill="white" />
			<rect x="15" y="15" width="2" height="2" fill="white" />
		</g>
	</symbol>

	<symbol id="close" viewBox="0 0 24 24">
		<path d="M18 6L6 18M6 6L18 18" stroke-width="2" stroke-linecap="round" stroke-linejoin="round" />
	</symbol>

	<symbol id="file" viewBox="0 0 28 28">
		<g>
			<path
				d="M5.20898 0.0765991C4.74961 0.1915 4.40508 0.38847 4.05508 0.738642C3.69961 1.09428 3.48086 1.48275 3.38242 1.95877C3.33867 2.16121 3.32227 3.69868 3.32227 6.93776V11.6322L3.86914 11.6104C5.02305 11.5611 6.35195 11.8019 7.50039 12.2615C8.64336 12.7156 9.68789 13.4159 10.6066 14.3461L11.1371 14.8823H15.6543C20.073 14.8823 20.177 14.8823 20.3848 14.9917C20.6309 15.1175 20.8223 15.4294 20.8223 15.703C20.8223 15.9765 20.6309 16.2884 20.3848 16.4143C20.177 16.5237 20.073 16.5237 16.1848 16.5237H12.1926L12.4004 17.0052C12.7504 17.8204 12.9965 18.7068 13.0895 19.4947L13.1277 19.8065H16.6496C20.0676 19.8065 20.177 19.812 20.3848 19.916C20.6309 20.0418 20.8223 20.3537 20.8223 20.6273C20.8223 20.9008 20.6309 21.2127 20.3848 21.3385C20.177 21.4425 20.0676 21.448 16.6496 21.448H13.1332L13.0621 21.9459C12.7504 24.1563 11.4379 26.416 9.69883 27.7292L9.32148 28.0137H15.8621C20.4668 28.0137 22.4902 27.9973 22.6926 27.9535C23.6223 27.7565 24.3934 26.9796 24.5902 26.0549C24.634 25.847 24.6504 23.062 24.6504 16.4416V7.11285H21.4184H18.1863L17.9676 6.99247C17.8363 6.91587 17.7051 6.78456 17.6449 6.66419C17.5465 6.47269 17.541 6.29213 17.541 3.22814V0L11.5145 0.00547028C6.88242 0.0109425 5.4168 0.0273571 5.20898 0.0765991ZM20.3848 10.0674C20.6309 10.1933 20.8223 10.5051 20.8223 10.7787C20.8223 11.0523 20.6309 11.3641 20.3848 11.49C20.1715 11.5994 20.0785 11.5994 13.9809 11.5994H7.7957L7.57695 11.479C7.02461 11.1672 7.01914 10.4176 7.56602 10.0893L7.7793 9.95798H13.9754C20.0785 9.95798 20.1715 9.95798 20.3848 10.0674Z" />
			<path fill-rule="evenodd" clip-rule="evenodd"
				d="M24.6504 11.6322V7.11284H9.78633H6.5543H3.32227V16.4416C3.32227 23.062 3.33867 25.847 3.38242 26.0549C3.57929 26.9796 4.35039 27.7565 5.28008 27.9535C5.48242 27.9973 7.50586 28.0137 12.1105 28.0137H18.6512L18.2738 27.7292C16.5348 26.416 15.2223 24.1563 14.9105 21.9459L14.8395 21.448H11.323C7.90508 21.448 7.7957 21.4425 7.58789 21.3385C7.34179 21.2127 7.15039 20.9008 7.15039 20.6273C7.15039 20.3537 7.34179 20.0418 7.58789 19.916C7.7957 19.812 7.90508 19.8065 11.323 19.8065H14.8449L14.8832 19.4947C14.9762 18.7068 15.2223 17.8204 15.5723 17.0052L15.7801 16.5237H11.7879C7.89961 16.5237 7.7957 16.5237 7.58789 16.4143C7.34179 16.2884 7.15039 15.9765 7.15039 15.703C7.15039 15.4294 7.34179 15.1175 7.58789 14.9917C7.7957 14.8823 7.89961 14.8823 12.3184 14.8823H16.8355L17.366 14.3461C18.2848 13.4159 19.3293 12.7156 20.4723 12.2615C21.6207 11.8019 22.9496 11.5611 24.1035 11.6104L24.6504 11.6322ZM7.15039 10.7787C7.15039 10.5051 7.34179 10.1933 7.58789 10.0674C7.80117 9.95798 7.89414 9.95798 13.9973 9.95798H20.1934L20.4066 10.0893C20.9535 10.4176 20.948 11.1672 20.3957 11.479L20.177 11.5994H13.9918C7.89414 11.5994 7.80117 11.5994 7.58789 11.49C7.34179 11.3641 7.15039 11.0523 7.15039 10.7787Z" />
			<path
				d="M19.1953 2.98121V5.4707H21.6945H24.1992L21.7109 2.98121C20.3438 1.61335 19.2172 0.491711 19.2117 0.491711C19.2008 0.491711 19.1953 1.61335 19.1953 2.98121Z" />
		</g>
	</symbol>
	<symbol id="loader" viewBox="0 0 24 25">
		<path
			d="M12 2.5V6.5M12 18.5V22.5M4.93 5.43L7.76 8.26M16.24 16.74L19.07 19.57M2 12.5H6M18 12.5H22M4.93 19.57L7.76 16.74M16.24 8.26L19.07 5.43"
			stroke="white" stroke-width="2" stroke-linecap="round" stroke-linejoin="round" />
	</symbol>


	<symbol id="check" viewBox="0 0 14 15">
		<path d="M11.6673 4L5.25065 10.4167L2.33398 7.5" stroke-width="2" stroke-linecap="round" stroke-linejoin="round" />
	</symbol>



	<symbol id="prev" viewBox="0 0 36 36">
		<path d="M21 10.5L13.5 18L21 25.5" stroke-width="2" stroke-linecap="round" stroke-linejoin="round" />
	</symbol>
	<symbol id="next" viewBox="0 0 36 36">
		<path d="M15 10.5L22.5 18L15 25.5" stroke-width="2" stroke-linecap="round" stroke-linejoin="round" />
	</symbol>

	<symbol id="arrow-top" viewBox="0 0 34 18">
		<path d="M32 16.5L17 1.5L2 16.5" stroke-width="3" stroke-linecap="round" stroke-linejoin="round" />
	</symbol>

</svg>