<svg width="50" height="50" viewBox="0 0 50 50" fill="none" xmlns="http://www.w3.org/2000/svg">
<g clip-path="url(#clip0_242_4098)">
<path fill-rule="evenodd" clip-rule="evenodd" d="M7.36328 2.88087C7.73438 2.08009 8.42773 1.54298 9.32617 1.3379C9.62891 1.26954 43.75 1.25977 43.75 1.32813C43.75 1.35743 43.5938 1.69923 43.4082 2.08985C43.2227 2.47071 43.0273 3.06641 42.9688 3.41798C42.9102 3.82813 42.8711 10.7031 42.8711 23.0566C42.8711 39.6289 42.8516 42.1191 42.7246 42.4805C42.3047 43.6719 41.0352 44.3945 39.707 44.1992L39.2578 44.1309V40.918C39.2578 38.6816 39.2871 37.6856 39.3652 37.6367C39.5996 37.5 39.9414 36.5625 39.9414 36.0742C39.9414 35.6445 39.9805 35.5469 40.2832 35.2539C41.2402 34.3262 41.2207 32.7344 40.2344 31.6016C40.0098 31.3574 39.9414 31.1816 39.9414 30.8789C39.9414 29.5996 38.877 28.4863 37.5195 28.3496C37.0898 28.3008 36.8848 28.2227 36.6309 27.9981C35.5664 27.0801 33.9844 27.0801 33.0566 27.9981C32.8125 28.2422 32.6562 28.3008 32.168 28.3399C31.4746 28.4082 31.0547 28.5938 30.5371 29.0918C30.0293 29.5703 29.7754 30.0977 29.707 30.8008C29.6904 31.0045 29.6702 31.1534 29.6345 31.2745H11.4258V32.8745H28.742C28.5407 33.7539 28.7712 34.7314 29.4336 35.3418C29.6289 35.5274 29.6875 35.6738 29.6875 35.9863C29.6875 36.5039 29.9121 37.1387 30.2246 37.5586C30.4102 37.8027 30.4688 37.9981 30.4688 38.3691V38.8672H18.7988H7.12891V21.1133V3.36915L7.36328 2.88087ZM38.5254 6.66512H11.499V8.26512H38.5254V6.66512ZM11.4258 12.8175H38.4521V14.4175H11.4258V12.8175ZM38.4521 18.9698H11.4258V20.5698H38.4521V18.9698ZM11.4258 25.1222H38.4521V26.7222H11.4258V25.1222Z" fill="#479E70"/>
<path d="M46.8262 1.32812C45.8887 1.57227 45.2344 2.08008 44.8633 2.88086C44.6777 3.27148 44.6289 3.53516 44.6289 4.16992V4.98047H47.3242H50.0195L49.9805 4.07227C49.9316 2.76367 49.4629 1.98242 48.4668 1.54297C48.0273 1.34766 47.1875 1.24023 46.8262 1.32812Z" fill="#479E70"/>
<path d="M34.0739 28.4448C33.934 28.5734 33.7708 28.8188 33.7125 28.959C33.6543 29.111 33.4678 29.333 33.3046 29.4382C33.0365 29.6135 32.92 29.6252 32.4421 29.4967C31.7311 29.3213 31.3465 29.4148 30.9619 29.8706C30.6472 30.2446 30.6472 30.2446 30.8686 31.4367C30.9502 31.8341 30.7754 32.0678 29.8779 32.734C29.5632 32.9678 29.5166 33.0846 29.5166 33.5404C29.5166 33.9846 29.5749 34.1131 29.9012 34.4053C30.0994 34.5923 30.4257 34.8728 30.6122 35.0364C30.9036 35.3052 30.9386 35.387 30.857 35.7727C30.6705 36.6609 30.7288 37.0934 31.0901 37.4089C31.4048 37.6777 31.4864 37.6894 32.2789 37.6193C33.1065 37.5375 33.1414 37.5492 33.4212 37.8647C33.5843 38.04 33.8641 38.3673 34.0506 38.566C34.6217 39.2088 35.4609 39.0568 35.9154 38.2387C36.2767 37.6076 36.4865 37.5258 37.4772 37.6193C38.2348 37.6777 38.3397 37.666 38.5729 37.444C38.9225 37.1167 39.0158 36.696 38.8759 36.0883C38.736 35.4805 38.9109 34.9546 39.3305 34.7442C40.461 34.1599 40.5077 32.9678 39.4354 32.4068C38.8759 32.1263 38.736 31.7523 38.8876 30.9926C39.0391 30.2563 38.8992 29.859 38.3864 29.5551C38.0367 29.3564 37.9435 29.3447 37.419 29.4733C36.673 29.672 36.2301 29.4967 35.9154 28.8889C35.7989 28.6435 35.5891 28.3864 35.4725 28.3162C35.0762 28.1176 34.3653 28.176 34.0739 28.4448Z" fill="#479E70"/>
<path d="M31.6406 45.7764V49.9512L32.0204 49.6718C35.0474 47.3673 34.6906 47.4255 36.5897 48.8804C37.3493 49.4507 37.9939 49.9279 38.0284 49.9279C38.0629 49.9279 38.0859 49.0587 38.0859 45.7647V39.7705H37.6946C37.4184 39.7705 37.1997 39.8753 36.9465 40.1081C36.4171 40.6086 35.8071 40.8646 34.9669 40.9112C34.0806 40.9694 33.252 40.6667 32.7225 40.1081C32.4923 39.8636 32.2967 39.7705 32.0204 39.7705H31.6406V45.7764Z" fill="#479E70"/>
<path d="M0 41.4258C0.00976562 42.6562 0.458984 43.4473 1.43555 43.9453L1.9043 44.1895L16.1914 44.2188L30.4688 44.2383V42.4316V40.625H15.2344H0V41.4258Z" fill="#479E70"/>
</g>
<defs>
<clipPath id="clip0_242_4098">
<rect width="50" height="50" fill="white"/>
</clipPath>
</defs>
</svg>
