<svg width="50" height="50" viewBox="0 0 50 50" fill="none" xmlns="http://www.w3.org/2000/svg">
<path fill-rule="evenodd" clip-rule="evenodd" d="M11.9646 0.889153C12.0646 0.678043 12.3202 0.389149 12.5313 0.255817L12.9091 0.000263214H23.8869H34.8757V4.50026V9.00025H39.0979H43.3202V25.4002V41.8002L43.0868 42.2224C42.9535 42.4558 42.6646 42.7447 42.4313 42.878L42.0091 43.1113H27.5202C13.6313 43.1113 13.0202 43.1002 12.6535 42.9002C12.4424 42.7891 12.1535 42.5002 12.0202 42.2669L11.7646 41.8336V21.5558C11.7646 2.46693 11.7758 1.25582 11.9646 0.889153ZM16 14H39V15.6H16V14ZM39 27H16V28.6H39V27ZM16 21H39V22.6H16V21ZM39 34H16V35.6H39V34Z" fill="#479E70"/>
<path d="M35.876 4.27778V8H39.3204C41.2204 8 42.7649 7.95556 42.7649 7.9C42.7649 7.8 36.0204 0.555564 35.9315 0.555564C35.8982 0.555564 35.876 2.23334 35.876 4.27778Z" fill="#479E70"/>
<path d="M7.5311 7.13338C7.30888 7.2556 7.01999 7.5556 6.88665 7.77782L6.65332 8.20004V28.4667C6.65332 47.9667 6.66443 48.7444 6.86443 49.1111C6.97554 49.3222 7.2311 49.6111 7.4311 49.7444L7.79776 50H22.4311H37.0644L37.4422 49.7444C38.1422 49.2778 38.2088 49 38.2088 46.4111V44.1111H25.5533H12.8978L12.3089 43.8C11.6422 43.4556 11.0533 42.7667 10.8755 42.1333C10.8089 41.8556 10.7644 35.9556 10.7644 24.3V6.88893H9.35332C8.10887 6.88893 7.87554 6.92227 7.5311 7.13338Z" fill="#479E70"/>
</svg>
