<svg width="50" height="50" viewBox="0 0 50 50" fill="none" xmlns="http://www.w3.org/2000/svg">
<g clip-path="url(#clip0_242_4055)">
<path d="M17.8005 0.112553C16.9395 0.39631 16.4013 0.72899 15.7751 1.35521C14.9923 2.1282 14.5814 2.9012 14.4052 3.95795L14.2878 4.67223H13.2115C11.9199 4.67223 11.509 4.77008 11.0295 5.19082C10.4229 5.72898 10.4131 5.78769 10.4131 9.31997V12.5H19.1704H27.9277V9.43738C27.9277 7.637 27.8886 6.23778 27.8299 6.02252C27.7712 5.81704 27.6146 5.5235 27.4678 5.35716C27.0275 4.82878 26.734 4.73094 25.3054 4.6918C23.8475 4.64288 23.9943 4.73094 23.8671 3.78182C23.7007 2.48045 22.5559 1.02253 21.2056 0.39631C20.4913 0.0636293 20.3739 0.0342751 19.3172 0.004921C18.5638 -0.0146484 18.0647 0.0244904 17.8005 0.112553ZM20.0021 3.55677C20.7653 3.78182 21.5872 4.62331 21.8123 5.40608C22.145 6.52154 21.7536 7.71528 20.8436 8.40021C20.2369 8.86009 19.6792 9.01664 18.8769 8.95793C18.1528 8.89923 17.5657 8.5959 17.0863 8.04796C16.6068 7.5098 16.4503 7.12819 16.4013 6.3552C16.3622 5.70941 16.3818 5.59199 16.6655 5.01469C17.0178 4.30041 17.4776 3.86988 18.1919 3.59591C18.7986 3.37086 19.3172 3.35129 20.0021 3.55677Z" fill="#479E70"/>
<path d="M5.74623 7.46091C4.3568 7.83273 3.37833 8.74271 2.88909 10.1028L2.67383 10.6899L2.70318 28.8894L2.73254 47.089L3.05543 47.7544C3.47617 48.5958 4.1611 49.2808 5.00259 49.7015L5.66795 50.0244H19.1709H32.6738L33.3293 49.6917C34.161 49.2808 34.8851 48.5274 35.2961 47.6565L35.6092 46.9912L35.6385 41.3258C35.6679 35.9246 35.6581 35.6702 35.4918 35.7289C35.0906 35.8855 34.0925 36.0812 33.388 36.1399L32.6346 36.2084L32.6053 41.228C32.5759 46.1497 32.5759 46.2475 32.3704 46.5215C32.2628 46.6683 32.0573 46.8542 31.9301 46.9129C31.7442 47.0107 28.9066 47.0401 19.1415 47.0401C5.35484 47.0401 6.18654 47.0792 5.86364 46.453C5.73644 46.1986 5.71687 44.1242 5.71687 28.7427C5.71687 13.4687 5.73644 11.2769 5.86364 11.0323C6.1474 10.4942 6.30396 10.4452 7.938 10.4452H9.43507V8.87969V7.31414L7.84994 7.32392C6.80298 7.32392 6.07891 7.37285 5.74623 7.46091Z" fill="#479E70"/>
<path d="M28.9062 8.86973V10.4451H30.4131C32.6244 10.4451 32.6244 10.4451 32.6244 13.4979V15.4353H33.143C33.417 15.4353 34.0726 15.5233 34.5814 15.631C35.0902 15.7386 35.5403 15.8267 35.5892 15.8267C35.6283 15.8267 35.6577 14.7308 35.6577 13.4001C35.6577 10.6701 35.5794 10.1809 35.0315 9.2709C34.6303 8.61533 33.7497 7.87169 33.0158 7.58793C32.5462 7.40202 32.2331 7.37267 30.6969 7.33353L28.9062 7.29439V8.86973Z" fill="#479E70"/>
<path d="M6.69534 28.7427V46.0616H19.1219H31.5485V41.1204C31.5485 37.2456 31.5192 36.1693 31.4311 36.1399C31.3626 36.1204 30.9125 36.0323 30.4233 35.9443C29.3567 35.7388 28.0064 35.2006 27.0084 34.5744C26.1669 34.0558 24.7873 32.7936 24.2491 32.0597L23.8969 31.5803H23.8907H16.3235H8.75013V31.091V30.6018H15.9908C19.9732 30.6018 23.2315 30.5627 23.2315 30.5137C23.2315 30.4755 23.11 30.1662 22.9584 29.8326C22.9549 29.8248 22.9513 29.817 22.9478 29.8092C22.7129 29.2711 22.39 28.1263 22.2041 27.1478L22.1552 26.8836H15.4527H8.75013V26.3454V25.8073H15.4429H22.1258L22.1845 24.8973C22.2294 24.2072 22.3399 23.6319 22.6289 22.5625C22.6553 22.4644 22.6833 22.3623 22.7129 22.2554C22.7618 22.0989 22.3802 22.0891 15.756 22.0891H8.75013V21.5999V21.1106L16.0006 21.0911L23.2609 21.0617L23.6425 20.4257C24.21 19.4864 25.0319 18.5177 25.7266 17.9502L26.2105 17.5508L26.343 17.4414L17.5466 17.412L8.75013 17.3924V16.8543V16.3161L18.6131 16.2868L28.4663 16.2574L29.298 15.9541C29.7579 15.7877 30.4526 15.6018 30.844 15.5333L31.5485 15.4159V13.4198V11.4238H30.2276H28.9066V12.4512V13.4785H19.1709H9.43506V12.4512V11.4238H8.0652H6.69534V28.7427ZM27.4389 35.8366V36.3748H18.0945H8.75013V35.8366V35.2985H18.0945H27.4389V35.8366ZM29.1023 40.5822V41.0714H18.9262H8.75013V40.5822V40.093H18.9262H29.1023V40.5822Z" fill="#479E70"/>
<path d="M26.2105 17.5508L26.343 17.4414L17.5466 17.412L8.75013 17.3924V16.8543V16.3161L18.6131 16.2868L28.4663 16.2574C27.9612 16.4906 26.9436 17.015 26.2105 17.5508Z" fill="#479E70"/>
<path d="M22.6289 22.5625C22.6553 22.4644 22.6833 22.3623 22.7129 22.2554C22.7618 22.0989 22.3802 22.0891 15.756 22.0891H8.75013V21.5999V21.1106L16.0006 21.0911L23.2609 21.0617C22.998 21.4665 22.7906 21.9958 22.6289 22.5625Z" fill="#479E70"/>
<path d="M22.9584 29.8326C22.9549 29.8248 22.9513 29.817 22.9478 29.8092C22.7129 29.2711 22.39 28.1263 22.2041 27.1478L22.1552 26.8836H15.4527H8.75013V26.3454V25.8073H15.4429H22.1258C22.0769 26.3246 22.1902 27.7951 22.9584 29.8326Z" fill="#479E70"/>
<path d="M23.8907 31.5803H16.3235H8.75013V31.091V30.6018H15.9908C19.9732 30.6018 23.2315 30.5627 23.2315 30.5137C23.3822 30.7946 23.6074 31.1687 23.8907 31.5803Z" fill="#479E70"/>
<path d="M27.4389 35.8366V36.3748H18.0945H8.75013V35.8366V35.2985H18.0945H27.4389V35.8366Z" fill="#479E70"/>
<path d="M29.1023 40.5822V41.0714H18.9262H8.75013V40.5822V40.093H18.9262H29.1023V40.5822Z" fill="#479E70"/>
<rect x="9" y="19" width="19" height="1.6" fill="#F4F5F7"/>
<rect x="9" y="32" width="19" height="1.6" fill="#F4F5F7"/>
<rect x="9" y="26" width="19" height="1.6" fill="#F4F5F7"/>
<rect x="9" y="39" width="19" height="1.6" fill="#F4F5F7"/>
<path d="M31.206 16.4824C28.9751 16.7955 26.5583 18.1654 25.1982 19.9071C24.4644 20.8269 23.7109 22.3337 23.4076 23.4589C23.1239 24.5353 23.0945 26.8445 23.3587 27.8816C23.9262 30.1419 25.2471 32.138 27.0084 33.4002C27.8597 34.0069 29.3078 34.6722 30.3352 34.9168C31.8029 35.2789 34.1708 35.181 35.3841 34.7211C35.6483 34.6233 35.6581 34.6331 36.7833 36.59L37.9183 38.5665L37.6933 38.7427C37.5661 38.8405 37.4389 38.9188 37.3997 38.9188C37.3508 38.9188 37.3215 38.9579 37.3215 38.9971C37.3215 39.0362 38.5739 41.2573 40.1101 43.9188C42.0279 47.2456 43.0064 48.8503 43.251 49.0655C44.4643 50.1419 46.5289 49.682 47.1453 48.1947C47.341 47.7348 47.341 46.7466 47.1551 46.2965C47.0083 45.9442 41.7637 36.7955 41.6072 36.6194C41.5583 36.5607 41.4115 36.5998 41.2256 36.7074C41.0592 36.8053 40.8929 36.8444 40.8538 36.8053C40.8048 36.7564 40.296 35.8757 39.6992 34.8483L38.6326 32.9795L39.2393 32.3435C41.4995 29.9462 42.3704 26.7857 41.6267 23.6057C40.6483 19.3983 36.7833 16.3748 32.478 16.4335C31.9399 16.4335 31.3724 16.4629 31.206 16.4824ZM34.0436 19.5059C34.8949 19.7114 36.1082 20.3376 36.7637 20.9149C40.2667 24.046 39.4839 29.6037 35.2569 31.6292C32.1258 33.1262 28.2706 31.7955 26.7442 28.6938C26.2452 27.6566 26.069 26.9325 26.069 25.8366C26.069 24.6331 26.1963 24.0754 26.7246 22.9697C27.0964 22.1967 27.3019 21.913 27.9673 21.2476C29.66 19.5744 31.7638 18.9678 34.0436 19.5059Z" fill="#479E70"/>
</g>
<defs>
<clipPath id="clip0_242_4055">
<rect width="50" height="50" fill="white"/>
</clipPath>
</defs>
</svg>
