<svg width="50" height="50" viewBox="0 0 50 50" fill="none" xmlns="http://www.w3.org/2000/svg">
<g clip-path="url(#clip0_242_4082)">
<path d="M23.5156 0.185547C21.9824 0.673828 20.7617 1.95312 20.3613 3.4668C20.2832 3.78906 20.2148 4.18945 20.2148 4.36523V4.6875H19.1211C17.4902 4.6875 16.8848 4.91211 16.5039 5.66406C16.3184 6.02539 16.3086 6.25 16.3086 9.27734V12.5H25H33.6914V9.27734C33.6914 6.25 33.6816 6.02539 33.4961 5.66406C33.1152 4.91211 32.5098 4.6875 30.8887 4.6875H29.7852V4.36523C29.7852 3.07617 28.8281 1.48438 27.5684 0.683594C26.5039 0.00976562 24.7461 -0.205078 23.5156 0.185547ZM26.2305 3.74023C28.3301 4.80469 28.2715 7.74414 26.123 8.75C24.3652 9.58008 22.2363 8.21289 22.2266 6.25C22.2266 4.9707 23.0176 3.93555 24.3164 3.50586C24.7656 3.35938 25.7031 3.47656 26.2305 3.74023Z" fill="#479E70"/>
<path d="M11.6703 7.46094C10.1273 7.8418 8.89687 9.15039 8.59413 10.7422C8.53554 11.0742 8.49647 17.4023 8.49647 28.7305C8.49647 48.2227 8.45741 47.0117 9.1703 48.1152C9.63905 48.8379 10.1273 49.2676 10.9379 49.6484L11.5726 49.9512H25.0004H38.4281L39.0629 49.6484C39.8734 49.2676 40.3617 48.8379 40.8305 48.1152C41.5434 47.0117 41.5043 48.2227 41.5043 28.7305C41.5043 17.4023 41.4652 11.0742 41.4066 10.7422C41.1039 9.12109 39.7758 7.76367 38.2035 7.43164C37.9203 7.37305 37.0316 7.32422 36.2309 7.32422H34.766V8.88672V10.4492H36.2406H37.7152L38.0473 10.7812L38.3793 11.1133V28.6816C38.3793 44.4434 38.3598 46.2695 38.223 46.4648C37.8519 47.002 38.5453 46.9727 25.0004 46.9727C11.4555 46.9727 12.1488 47.002 11.7777 46.4648C11.641 46.2695 11.6215 44.4434 11.6215 28.6816V11.1133L11.9535 10.7812L12.2855 10.4492H13.7601H15.2348V8.88672V7.32422L13.7016 7.33398C12.8324 7.33398 11.9437 7.39258 11.6703 7.46094Z" fill="#479E70"/>
<path d="M12.5977 28.7109V45.9961H25H37.4023V28.7109V11.4258H36.084H34.7656V12.4512V13.4766H25H15.2344V12.4512V11.4258H13.916H12.5977V28.7109ZM19.3848 16.2109L19.5117 16.4648L17.0605 17.8809C15.7031 18.6621 14.5898 19.2969 14.5703 19.2871C14.5215 19.248 13.9648 17.1582 13.9648 17.0215C13.9648 16.9141 14.5313 16.6992 14.8047 16.6992C14.8633 16.6992 14.9609 16.9434 15.0293 17.2363C15.0977 17.5293 15.1758 17.7734 15.2148 17.7734C15.2539 17.7734 16.123 17.2852 17.1387 16.6992C19.1699 15.5273 19.0332 15.5566 19.3848 16.2109ZM35.6934 16.2305C35.8789 16.4258 36.0547 16.709 36.0938 16.8457C36.1816 17.2168 35.9277 17.7832 35.5566 18.0371L35.2246 18.2617H29.1504C23.1348 18.2617 23.0664 18.2617 22.8125 18.0566C22.2656 17.627 22.1289 16.9824 22.4609 16.4258C22.8418 15.8105 22.6758 15.8203 29.3262 15.8496L35.3711 15.8691L35.6934 16.2305ZM19.2773 22.1875L19.5215 22.5879L17.0703 24.0039C15.7324 24.7754 14.5996 25.3711 14.5605 25.332C14.4141 25.1563 13.9355 23.1348 14.0234 23.0469C14.0723 22.998 14.2871 22.9297 14.5117 22.9004L14.9023 22.832L15.0293 23.3789C15.0977 23.6816 15.1758 23.9258 15.2148 23.916C15.2539 23.916 16.0938 23.4375 17.0898 22.8516C18.0859 22.2656 18.9258 21.7871 18.9648 21.7871C19.0039 21.7773 19.1406 21.9629 19.2773 22.1875ZM35.5078 22.1582C35.8105 22.3438 36.1328 22.8809 36.1328 23.1934C36.1328 23.5059 35.8105 24.043 35.5078 24.2285C35.2246 24.4043 34.9023 24.4141 29.2188 24.4141C22.6172 24.4141 22.8418 24.4336 22.4609 23.7988C22.1094 23.2227 22.2852 22.5293 22.8809 22.168C23.1836 21.9824 23.418 21.9727 29.1992 21.9727C34.9023 21.9727 35.2246 21.9824 35.5078 22.1582ZM19.2773 28.291C19.4043 28.4961 19.4824 28.6914 19.4434 28.7305C19.3066 28.877 14.6191 31.543 14.5703 31.5039C14.502 31.4355 13.9648 29.4727 13.9648 29.2871C13.9648 29.1895 14.1113 29.1016 14.4043 29.0332C14.6484 28.9746 14.8633 28.9551 14.8828 28.9941C14.8926 29.0234 14.9707 29.2676 15.0391 29.541C15.1074 29.8047 15.1758 30.0391 15.1855 30.0586C15.1953 30.0684 16.0352 29.5996 17.0508 29.0137C18.0664 28.418 18.9258 27.9297 18.9648 27.9297C19.0039 27.9297 19.1504 28.0957 19.2773 28.291ZM35.5566 28.3496C35.7715 28.4961 35.9375 28.7207 36.0352 28.9844C36.1719 29.375 36.1621 29.4238 35.9473 29.834C35.5469 30.5957 35.8398 30.5664 29.209 30.5664C22.7246 30.5664 22.8418 30.5762 22.4609 29.9609C22.1289 29.4043 22.2656 28.7598 22.8125 28.3301C23.0664 28.125 23.1348 28.125 29.1504 28.125H35.2246L35.5566 28.3496ZM19.2676 34.4238L19.5117 34.8535L17.0605 36.2695C15.7129 37.0508 14.5898 37.6758 14.5703 37.6563C14.5508 37.6367 14.3945 37.0996 14.2188 36.4648L13.8965 35.3027L14.3359 35.1855C14.5801 35.1172 14.8145 35.0879 14.8535 35.1172C14.8926 35.1367 14.9707 35.3711 15.0391 35.6445C15.1074 35.9082 15.2051 36.1328 15.2637 36.123C15.332 36.123 16.1914 35.6445 17.1875 35.0586C18.1836 34.4727 19.0039 33.9941 19.0137 33.9941C19.0234 33.9844 19.1406 34.1797 19.2676 34.4238ZM35.5176 34.4336C36.1328 34.8828 36.2598 35.625 35.8203 36.1914C35.4004 36.7188 35.4492 36.7188 29.1504 36.7188C23.5742 36.7188 23.3203 36.709 22.959 36.5234C21.9824 36.0352 22.1289 34.5996 23.1934 34.2773C23.3496 34.2383 26.1133 34.1992 29.3652 34.209C29.3755 34.209 29.3857 34.2091 29.396 34.2091C35.1371 34.2285 35.2446 34.2289 35.5176 34.4336ZM19.3164 40.6348L19.5215 40.9766L17.0605 42.4023C15.7129 43.1836 14.5898 43.8184 14.5703 43.7988C14.5508 43.7793 14.3945 43.2422 14.2188 42.5977L13.8965 41.4258L14.3262 41.3184C14.5605 41.25 14.7949 41.2305 14.8438 41.2598C14.8828 41.2891 14.9707 41.5234 15.0391 41.7969C15.1074 42.0605 15.1855 42.2852 15.2344 42.2852C15.2734 42.2852 16.1328 41.8066 17.1484 41.2207C18.1641 40.625 19.0234 40.1758 19.0527 40.2148C19.082 40.2539 19.1992 40.4395 19.3164 40.6348ZM35.459 40.5566C35.6445 40.6738 35.8691 40.9473 35.9766 41.1523C36.1328 41.4648 36.1426 41.582 36.0449 41.8848C35.9082 42.3535 35.5664 42.666 35.0879 42.7832C34.5703 42.9004 23.6719 42.8906 23.2324 42.7734C22.1387 42.4707 21.9629 41.0449 22.959 40.5078C23.2715 40.3418 23.6621 40.332 29.209 40.332H35.127L35.459 40.5566Z" fill="#479E70"/>
<path d="M35.6934 16.2305C35.8789 16.4258 36.0547 16.709 36.0938 16.8457C36.1816 17.2168 35.9277 17.7832 35.5566 18.0371L35.2246 18.2617H29.1504C23.1348 18.2617 23.0664 18.2617 22.8125 18.0566C22.2656 17.627 22.1289 16.9824 22.4609 16.4258C22.8418 15.8105 22.6758 15.8203 29.3262 15.8496L35.3711 15.8691L35.6934 16.2305Z" fill="#479E70"/>
<path d="M35.5078 22.1582C35.8105 22.3438 36.1328 22.8809 36.1328 23.1934C36.1328 23.5059 35.8105 24.043 35.5078 24.2285C35.2246 24.4043 34.9023 24.4141 29.2188 24.4141C22.6172 24.4141 22.8418 24.4336 22.4609 23.7988C22.1094 23.2227 22.2852 22.5293 22.8809 22.168C23.1836 21.9824 23.418 21.9727 29.1992 21.9727C34.9023 21.9727 35.2246 21.9824 35.5078 22.1582Z" fill="#479E70"/>
<path d="M35.5566 28.3496C35.7715 28.4961 35.9375 28.7207 36.0352 28.9844C36.1719 29.375 36.1621 29.4238 35.9473 29.834C35.5469 30.5957 35.8398 30.5664 29.209 30.5664C22.7246 30.5664 22.8418 30.5762 22.4609 29.9609C22.1289 29.4043 22.2656 28.7598 22.8125 28.3301C23.0664 28.125 23.1348 28.125 29.1504 28.125H35.2246L35.5566 28.3496Z" fill="#479E70"/>
<path d="M35.5176 34.4336C36.1328 34.8828 36.2598 35.625 35.8203 36.1914C35.4004 36.7188 35.4492 36.7188 29.1504 36.7188C23.5742 36.7188 23.3203 36.709 22.959 36.5234C21.9824 36.0352 22.1289 34.5996 23.1934 34.2773C23.3496 34.2383 26.1133 34.1992 29.3652 34.209L29.396 34.2091C35.1371 34.2285 35.2446 34.2289 35.5176 34.4336Z" fill="#479E70"/>
<path d="M35.459 40.5566C35.6445 40.6738 35.8691 40.9473 35.9766 41.1523C36.1328 41.4648 36.1426 41.582 36.0449 41.8848C35.9082 42.3535 35.5664 42.666 35.0879 42.7832C34.5703 42.9004 23.6719 42.8906 23.2324 42.7734C22.1387 42.4707 21.9629 41.0449 22.959 40.5078C23.2715 40.3418 23.6621 40.332 29.209 40.332H35.127L35.459 40.5566Z" fill="#479E70"/>
<rect x="22.1924" y="16.6992" width="13.916" height="1.6" fill="#F4F5F7"/>
<rect x="22.1924" y="22.8516" width="13.916" height="1.6" fill="#F4F5F7"/>
<rect x="22.1924" y="29.0039" width="13.916" height="1.6" fill="#F4F5F7"/>
<rect x="22.1924" y="35.1562" width="13.916" height="1.6" fill="#F4F5F7"/>
<rect x="22.1924" y="41.3086" width="13.916" height="1.6" fill="#F4F5F7"/>
</g>
<defs>
<clipPath id="clip0_242_4082">
<rect width="50" height="50" fill="white"/>
</clipPath>
</defs>
</svg>
